<?xml version="1.0" encoding="utf-8"?>
<!-- Generator: Adobe Illustrator 26.0.2, SVG Export Plug-In . SVG Version: 6.00 Build 0)  -->
<svg version="1.1" id="Lager_1" xmlns="http://www.w3.org/2000/svg" xmlns:xlink="http://www.w3.org/1999/xlink" x="0px" y="0px"
	 viewBox="0 0 500 195.2" style="enable-background:new 0 0 500 195.2;" xml:space="preserve">
<style type="text/css">
	.st0{fill:#764AF1;}
	.st1{fill:#FFFFFF;}
</style>
<g>
	<g>
		<g>
			<path d="M195.62,64.04c0.58,0,0.97,0.45,0.97,0.9v9.73c0,0.58-0.39,0.97-0.97,0.97h-16.38v5.87h12.96c0.58,0,0.9,0.45,0.84,0.84
				l-0.9,9.03c-0.06,0.39-0.52,0.84-1.1,0.84h-11.8v15.41c0,0.45-0.45,0.9-0.97,0.9h-11.41c-0.52,0-0.9-0.52-0.9-0.97V64.95
				c0-0.45,0.39-0.9,0.9-0.9H195.62z"/>
			<path d="M239.39,107.69c0.19,0.39-0.06,0.84-0.58,0.84h-12.77c-0.58,0-1.1-0.32-1.35-0.84l-1.93-6.77h-12.12l-1.93,6.77
				c-0.26,0.52-0.77,0.84-1.35,0.84h-12.77c-0.52,0-0.77-0.45-0.58-0.84l14.57-42.81c0.19-0.39,0.9-0.84,1.55-0.84h13.15
				c0.64,0,1.35,0.45,1.55,0.84L239.39,107.69z M216.7,79.45l-3.48,12.25h6.96L216.7,79.45z"/>
			<path d="M276.6,104.6c0.19,0.45-0.06,0.9-0.58,1.16c-3.74,2.32-8.77,3.74-13.54,3.74c-13.28,0-22.18-9.28-22.18-23.21
				s8.9-23.21,22.18-23.21c4.77,0,9.8,1.42,13.54,3.74c0.52,0.26,0.77,0.71,0.58,1.16l-4.25,8.96c-0.26,0.58-0.71,0.77-1.23,0.52
				c-2.39-1.35-4.71-1.81-7.48-1.81c-5.8,0-9.67,4.25-9.67,10.64c0,6.38,3.87,10.64,9.67,10.64c2.77,0,5.09-0.45,7.48-1.8
				c0.52-0.26,0.97-0.06,1.23,0.51L276.6,104.6z"/>
			<path d="M295.81,64.04c0.58,0,0.97,0.45,0.97,0.97v42.62c0,0.45-0.39,0.9-0.97,0.9H284.4c-0.45,0-0.9-0.45-0.9-0.9V65.01
				c0-0.52,0.45-0.97,0.9-0.97H295.81z"/>
			<path d="M329.98,96.93c0.45,0,0.84,0.39,0.84,0.9l-0.9,9.8c-0.06,0.45-0.52,0.9-1.03,0.9h-23.27c-0.52,0-0.97-0.45-0.97-0.9
				V65.01c0-0.52,0.45-0.97,0.97-0.97h11.41c0.52,0,0.97,0.45,0.97,0.97v31.91H329.98z"/>
			<path d="M349.06,64.04c0.58,0,0.97,0.45,0.97,0.97v42.62c0,0.45-0.39,0.9-0.97,0.9h-11.41c-0.45,0-0.9-0.45-0.9-0.9V65.01
				c0-0.52,0.45-0.97,0.9-0.97H349.06z"/>
			<path d="M391.16,64.04c0.58,0,0.97,0.45,0.9,0.9l-0.97,9.8c-0.06,0.52-0.58,0.9-1.03,0.9h-9.61v31.98c0,0.45-0.39,0.9-0.9,0.9
				h-11.41c-0.52,0-0.97-0.45-0.97-0.9V75.65h-10.7c-0.45,0-0.9-0.39-0.9-0.9v-9.74c0-0.52,0.45-0.97,0.9-0.97H391.16z"/>
			<path d="M435.84,64.04c0.58,0,1.03,0.45,0.71,1.03L422.3,90.74v16.89c0,0.45-0.45,0.9-0.97,0.9h-11.35
				c-0.52,0-0.97-0.45-0.97-0.9V90.74l-14.25-25.66c-0.32-0.58,0.13-1.03,0.71-1.03h13.41c0.64,0,1.22,0.45,1.48,1.03l5.29,11.61
				l5.29-11.61c0.26-0.58,0.84-1.03,1.48-1.03H435.84z"/>
		</g>
		<g>
			<path d="M215.99,121.25c0.52,0,0.9,0.45,0.9,0.97v42.62c0,0.45-0.39,0.9-0.9,0.9h-11.93c-0.52,0-0.97-0.45-0.97-0.9v-18.96
				l-6.51,18.89c-0.19,0.52-1.03,0.97-1.61,0.97h-7.09c-0.58,0-1.42-0.45-1.61-0.97l-6.51-18.89v18.96c0,0.45-0.45,0.9-0.97,0.9
				h-11.93c-0.52,0-0.9-0.45-0.9-0.9v-42.62c0-0.52,0.39-0.97,0.9-0.97h13.48c0.84,0,1.81,0.58,2.19,1.29l8.9,24.63l8.9-24.63
				c0.39-0.71,1.35-1.29,2.19-1.29H215.99z"/>
			<path d="M247,166.64c-13.73,0-22.89-9.28-22.89-23.15c0-13.99,9.16-23.27,22.89-23.27c13.73,0,22.89,9.28,22.89,23.27
				C269.89,157.36,260.73,166.64,247,166.64z M247,133.24c-5.29,0-8.83,4.13-8.83,10.25c0,6.13,3.55,10.25,8.83,10.25
				c5.29,0,8.83-4.13,8.83-10.25C255.83,137.37,252.29,133.24,247,133.24z"/>
			<path d="M314.18,121.25c0.58,0,0.97,0.45,0.97,0.97v42.62c0,0.45-0.39,0.9-0.97,0.9h-11.15c-0.45,0-1.03-0.32-1.35-0.84
				l-11.22-20.05v19.99c0,0.45-0.39,0.9-0.97,0.9h-11.41c-0.52,0-0.9-0.45-0.9-0.9v-42.62c0-0.52,0.39-0.97,0.9-0.97h11.15
				c0.58,0,1.22,0.32,1.48,0.84l11.15,20.05v-19.92c0-0.52,0.45-0.97,0.9-0.97H314.18z"/>
			<path d="M326.56,152.2c0.19-0.64,0.64-0.84,1.16-0.51c2.97,1.68,6.51,2.9,8.96,3.09c2.06,0,3.42-0.97,3.42-2.45
				c0-3.8-18.12-3.61-18.12-17.66c0-8.64,6.51-14.38,16.31-14.38c4.58,0,10.38,1.87,14.44,4.64c0.52,0.32,0.71,0.84,0.52,1.16
				l-4.06,9.09c-0.19,0.64-0.64,0.84-1.16,0.51c-3.16-1.8-6.83-3.16-9.09-3.35c-2,0-3.29,0.9-3.29,2.32
				c0,3.8,18.25,3.55,18.25,17.73c0,8.57-6.64,14.31-16.57,14.31c-5.42,0-11.09-1.68-14.31-4.25c-0.52-0.39-0.71-0.84-0.52-1.16
				L326.56,152.2z"/>
			<path d="M394,121.25c0.58,0,0.97,0.45,0.9,0.9l-0.97,9.8c-0.06,0.52-0.58,0.9-1.03,0.9h-9.61v31.98c0,0.45-0.39,0.9-0.9,0.9
				h-11.41c-0.52,0-0.97-0.45-0.97-0.9v-31.98h-10.7c-0.45,0-0.9-0.39-0.9-0.9v-9.74c0-0.52,0.45-0.97,0.9-0.97H394z"/>
			<path d="M431.32,154.13c0.52,0,0.97,0.39,0.97,0.84v9.86c0,0.45-0.45,0.9-0.97,0.9h-29.98c-0.45,0-0.9-0.52-1.03-0.97v-42.62
				c0-0.58,0.32-0.9,0.9-0.9h29.33c0.58,0,1.03,0.45,1.03,0.9v9.73c0,0.58-0.45,0.97-1.03,0.97h-16.83v5.09h13.67
				c0.58,0,0.9,0.45,0.84,0.84l-0.9,9.03c-0.06,0.39-0.52,0.84-1.1,0.84h-12.51v5.48H431.32z"/>
			<path d="M475.94,164.7c0.32,0.58-0.13,1.03-0.71,1.03h-13.8c-0.64,0-1.23-0.45-1.48-1.03l-6.7-14.05h-0.77v14.18
				c0,0.45-0.45,0.9-1.03,0.9h-11.35c-0.52,0-0.97-0.45-0.97-0.9v-42.62c0-0.52,0.45-0.97,0.97-0.97h17.02
				c9.93,0,16.5,5.8,16.5,14.57c0,5.09-3.09,10.25-7.93,12.31L475.94,164.7z M456.27,139.69c2.19,0,3.67-1.35,3.67-3.42
				s-1.48-3.42-3.67-3.42h-3.8v6.83H456.27z"/>
		</g>
	</g>
	<path class="st0" d="M115.39,170.98h-68.2c-12.84,0-23.24-10.4-23.24-23.24V75.65c0-6.93,3.09-13.5,8.43-17.91l34.1-28.19
		c8.59-7.1,21.02-7.1,29.61,0l34.1,28.19c5.34,4.41,8.43,10.98,8.43,17.91v72.09C138.63,160.57,128.23,170.98,115.39,170.98z"/>
	<circle class="st1" cx="81.29" cy="88.6" r="27.33"/>
	<path d="M96.18,88.6c0,8.22-6.67,14.88-14.89,14.88c-8.22,0-14.88-6.66-14.88-14.88c0-8.22,6.66-14.89,14.88-14.89
		c1.08,0,2.14,0.12,3.15,0.33c-1.06,1.38-1.69,3.1-1.69,4.97c0,4.49,3.64,8.13,8.14,8.13c1.87,0,3.59-0.63,4.96-1.68
		C96.07,86.47,96.18,87.52,96.18,88.6z"/>
	<g>
		<g>
			<path class="st1" d="M98.88,134.63l11.36,10.16c0.57,0.51,0.38,1.45-0.35,1.7l-22.65,7.45c-0.73,0.24-1.45-0.4-1.29-1.15
				l3.11-14.92C90,133.37,95.45,131.57,98.88,134.63z"/>
		</g>
		<g>
			<path d="M81.29,154.51c-11.84,0-23.27-2.53-33.96-7.52c-1.52-0.71-2.18-2.52-1.47-4.05c0.71-1.53,2.52-2.19,4.05-1.47
				c9.88,4.61,20.44,6.95,31.39,6.95s21.51-2.34,31.39-6.95c1.53-0.71,3.34-0.05,4.05,1.47c0.71,1.52,0.05,3.34-1.47,4.05
				C104.56,151.98,93.14,154.51,81.29,154.51z"/>
		</g>
	</g>
</g>
</svg>
