<svg width="500" height="195" viewBox="0 0 500 195" fill="none" xmlns="http://www.w3.org/2000/svg">
<g clip-path="url(#clip0_55_3)">
<path d="M195.62 64.04C196.2 64.04 196.59 64.49 196.59 64.94V74.67C196.59 75.25 196.2 75.64 195.62 75.64H179.24V81.51H192.2C192.78 81.51 193.1 81.96 193.04 82.35L192.14 91.38C192.08 91.77 191.62 92.22 191.04 92.22H179.24V107.63C179.24 108.08 178.79 108.53 178.27 108.53H166.86C166.34 108.53 165.96 108.01 165.96 107.56V64.95C165.96 64.5 166.35 64.05 166.86 64.05H195.62V64.04Z" fill="white"/>
<path d="M239.39 107.69C239.58 108.08 239.33 108.53 238.81 108.53H226.04C225.46 108.53 224.94 108.21 224.69 107.69L222.76 100.92H210.64L208.71 107.69C208.45 108.21 207.94 108.53 207.36 108.53H194.59C194.07 108.53 193.82 108.08 194.01 107.69L208.58 64.88C208.77 64.49 209.48 64.04 210.13 64.04H223.28C223.92 64.04 224.63 64.49 224.83 64.88L239.39 107.69ZM216.7 79.45L213.22 91.7H220.18L216.7 79.45Z" fill="white"/>
<path d="M276.6 104.6C276.79 105.05 276.54 105.5 276.02 105.76C272.28 108.08 267.25 109.5 262.48 109.5C249.2 109.5 240.3 100.22 240.3 86.29C240.3 72.36 249.2 63.08 262.48 63.08C267.25 63.08 272.28 64.5 276.02 66.82C276.54 67.08 276.79 67.53 276.6 67.98L272.35 76.94C272.09 77.52 271.64 77.71 271.12 77.46C268.73 76.11 266.41 75.65 263.64 75.65C257.84 75.65 253.97 79.9 253.97 86.29C253.97 92.67 257.84 96.93 263.64 96.93C266.41 96.93 268.73 96.48 271.12 95.13C271.64 94.87 272.09 95.07 272.35 95.64L276.6 104.6Z" fill="white"/>
<path d="M295.81 64.04C296.39 64.04 296.78 64.49 296.78 65.01V107.63C296.78 108.08 296.39 108.53 295.81 108.53H284.4C283.95 108.53 283.5 108.08 283.5 107.63V65.01C283.5 64.49 283.95 64.04 284.4 64.04H295.81Z" fill="white"/>
<path d="M329.98 96.93C330.43 96.93 330.82 97.32 330.82 97.83L329.92 107.63C329.86 108.08 329.4 108.53 328.89 108.53H305.62C305.1 108.53 304.65 108.08 304.65 107.63V65.01C304.65 64.49 305.1 64.04 305.62 64.04H317.03C317.55 64.04 318 64.49 318 65.01V96.92H329.98V96.93Z" fill="white"/>
<path d="M349.06 64.04C349.64 64.04 350.03 64.49 350.03 65.01V107.63C350.03 108.08 349.64 108.53 349.06 108.53H337.65C337.2 108.53 336.75 108.08 336.75 107.63V65.01C336.75 64.49 337.2 64.04 337.65 64.04H349.06Z" fill="white"/>
<path d="M391.16 64.04C391.74 64.04 392.13 64.49 392.06 64.94L391.09 74.74C391.03 75.26 390.51 75.64 390.06 75.64H380.45V107.62C380.45 108.07 380.06 108.52 379.55 108.52H368.14C367.62 108.52 367.17 108.07 367.17 107.62V75.65H356.47C356.02 75.65 355.57 75.26 355.57 74.75V65.01C355.57 64.49 356.02 64.04 356.47 64.04H391.16Z" fill="white"/>
<path d="M435.84 64.04C436.42 64.04 436.87 64.49 436.55 65.07L422.3 90.74V107.63C422.3 108.08 421.85 108.53 421.33 108.53H409.98C409.46 108.53 409.01 108.08 409.01 107.63V90.74L394.76 65.08C394.44 64.5 394.89 64.05 395.47 64.05H408.88C409.52 64.05 410.1 64.5 410.36 65.08L415.65 76.69L420.94 65.08C421.2 64.5 421.78 64.05 422.42 64.05H435.84V64.04Z" fill="white"/>
<path d="M215.99 121.25C216.51 121.25 216.89 121.7 216.89 122.22V164.84C216.89 165.29 216.5 165.74 215.99 165.74H204.06C203.54 165.74 203.09 165.29 203.09 164.84V145.88L196.58 164.77C196.39 165.29 195.55 165.74 194.97 165.74H187.88C187.3 165.74 186.46 165.29 186.27 164.77L179.76 145.88V164.84C179.76 165.29 179.31 165.74 178.79 165.74H166.86C166.34 165.74 165.96 165.29 165.96 164.84V122.22C165.96 121.7 166.35 121.25 166.86 121.25H180.34C181.18 121.25 182.15 121.83 182.53 122.54L191.43 147.17L200.33 122.54C200.72 121.83 201.68 121.25 202.52 121.25H215.99Z" fill="white"/>
<path d="M247 166.64C233.27 166.64 224.11 157.36 224.11 143.49C224.11 129.5 233.27 120.22 247 120.22C260.73 120.22 269.89 129.5 269.89 143.49C269.89 157.36 260.73 166.64 247 166.64ZM247 133.24C241.71 133.24 238.17 137.37 238.17 143.49C238.17 149.62 241.72 153.74 247 153.74C252.29 153.74 255.83 149.61 255.83 143.49C255.83 137.37 252.29 133.24 247 133.24Z" fill="white"/>
<path d="M314.18 121.25C314.76 121.25 315.15 121.7 315.15 122.22V164.84C315.15 165.29 314.76 165.74 314.18 165.74H303.03C302.58 165.74 302 165.42 301.68 164.9L290.46 144.85V164.84C290.46 165.29 290.07 165.74 289.49 165.74H278.08C277.56 165.74 277.18 165.29 277.18 164.84V122.22C277.18 121.7 277.57 121.25 278.08 121.25H289.23C289.81 121.25 290.45 121.57 290.71 122.09L301.86 142.14V122.22C301.86 121.7 302.31 121.25 302.76 121.25H314.18Z" fill="white"/>
<path d="M326.56 152.2C326.75 151.56 327.2 151.36 327.72 151.69C330.69 153.37 334.23 154.59 336.68 154.78C338.74 154.78 340.1 153.81 340.1 152.33C340.1 148.53 321.98 148.72 321.98 134.67C321.98 126.03 328.49 120.29 338.29 120.29C342.87 120.29 348.67 122.16 352.73 124.93C353.25 125.25 353.44 125.77 353.25 126.09L349.19 135.18C349 135.82 348.55 136.02 348.03 135.69C344.87 133.89 341.2 132.53 338.94 132.34C336.94 132.34 335.65 133.24 335.65 134.66C335.65 138.46 353.9 138.21 353.9 152.39C353.9 160.96 347.26 166.7 337.33 166.7C331.91 166.7 326.24 165.02 323.02 162.45C322.5 162.06 322.31 161.61 322.5 161.29L326.56 152.2Z" fill="white"/>
<path d="M394 121.25C394.58 121.25 394.97 121.7 394.9 122.15L393.93 131.95C393.87 132.47 393.35 132.85 392.9 132.85H383.29V164.83C383.29 165.28 382.9 165.73 382.39 165.73H370.98C370.46 165.73 370.01 165.28 370.01 164.83V132.85H359.31C358.86 132.85 358.41 132.46 358.41 131.95V122.21C358.41 121.69 358.86 121.24 359.31 121.24H394V121.25Z" fill="white"/>
<path d="M431.32 154.13C431.84 154.13 432.29 154.52 432.29 154.97V164.83C432.29 165.28 431.84 165.73 431.32 165.73H401.34C400.89 165.73 400.44 165.21 400.31 164.76V122.14C400.31 121.56 400.63 121.24 401.21 121.24H430.54C431.12 121.24 431.57 121.69 431.57 122.14V131.87C431.57 132.45 431.12 132.84 430.54 132.84H413.71V137.93H427.38C427.96 137.93 428.28 138.38 428.22 138.77L427.32 147.8C427.26 148.19 426.8 148.64 426.22 148.64H413.71V154.12H431.32V154.13Z" fill="white"/>
<path d="M475.94 164.7C476.26 165.28 475.81 165.73 475.23 165.73H461.43C460.79 165.73 460.2 165.28 459.95 164.7L453.25 150.65H452.48V164.83C452.48 165.28 452.03 165.73 451.45 165.73H440.1C439.58 165.73 439.13 165.28 439.13 164.83V122.21C439.13 121.69 439.58 121.24 440.1 121.24H457.12C467.05 121.24 473.62 127.04 473.62 135.81C473.62 140.9 470.53 146.06 465.69 148.12L475.94 164.7ZM456.27 139.69C458.46 139.69 459.94 138.34 459.94 136.27C459.94 134.2 458.46 132.85 456.27 132.85H452.47V139.68H456.27V139.69Z" fill="white"/>
<path d="M115.39 170.98H47.19C34.35 170.98 23.95 160.58 23.95 147.74V75.65C23.95 68.72 27.04 62.15 32.38 57.74L66.48 29.55C75.07 22.45 87.5 22.45 96.09 29.55L130.19 57.74C135.53 62.15 138.62 68.72 138.62 75.65V147.74C138.63 160.57 128.23 170.98 115.39 170.98Z" fill="#764AF1"/>
<path d="M81.29 115.93C96.384 115.93 108.62 103.694 108.62 88.6C108.62 73.5061 96.384 61.27 81.29 61.27C66.1961 61.27 53.96 73.5061 53.96 88.6C53.96 103.694 66.1961 115.93 81.29 115.93Z" fill="white"/>
<path d="M96.18 88.6C96.18 96.82 89.51 103.48 81.29 103.48C73.07 103.48 66.41 96.82 66.41 88.6C66.41 80.38 73.07 73.71 81.29 73.71C82.37 73.71 83.43 73.83 84.44 74.04C83.38 75.42 82.75 77.14 82.75 79.01C82.75 83.5 86.39 87.14 90.89 87.14C92.76 87.14 94.48 86.51 95.85 85.46C96.07 86.47 96.18 87.52 96.18 88.6Z" fill="black"/>
<path d="M98.88 134.63L110.24 144.79C110.81 145.3 110.62 146.24 109.89 146.49L87.24 153.94C86.51 154.18 85.79 153.54 85.95 152.79L89.06 137.87C90 133.37 95.45 131.57 98.88 134.63Z" fill="white"/>
<path d="M81.29 154.51C69.45 154.51 58.02 151.98 47.33 146.99C45.81 146.28 45.15 144.47 45.86 142.94C46.57 141.41 48.38 140.75 49.91 141.47C59.79 146.08 70.35 148.42 81.3 148.42C92.25 148.42 102.81 146.08 112.69 141.47C114.22 140.76 116.03 141.42 116.74 142.94C117.45 144.46 116.79 146.28 115.27 146.99C104.56 151.98 93.14 154.51 81.29 154.51Z" fill="black"/>
</g>
<defs>
<clipPath id="clip0_55_3">
<rect width="500" height="195" fill="white"/>
</clipPath>
</defs>
</svg>
