<svg width="500" height="196" viewBox="0 0 500 196" fill="none" xmlns="http://www.w3.org/2000/svg">
<path d="M184.81 46.75C185.39 46.75 185.78 47.2 185.78 47.65V57.38C185.78 57.96 185.39 58.35 184.81 58.35H168.43V64.22H181.39C181.97 64.22 182.29 64.67 182.23 65.06L181.33 74.09C181.27 74.48 180.81 74.93 180.23 74.93H168.43V90.34C168.43 90.79 167.98 91.24 167.46 91.24H156.05C155.53 91.24 155.15 90.72 155.15 90.27V47.66C155.15 47.21 155.54 46.76 156.05 46.76H184.81V46.75Z" fill="white"/>
<path d="M228.59 90.4C228.78 90.79 228.53 91.24 228.01 91.24H215.24C214.66 91.24 214.14 90.92 213.89 90.4L211.96 83.63H199.84L197.91 90.4C197.65 90.92 197.14 91.24 196.56 91.24H183.79C183.27 91.24 183.02 90.79 183.21 90.4L197.78 47.59C197.97 47.2 198.68 46.75 199.33 46.75H212.48C213.12 46.75 213.83 47.2 214.03 47.59L228.59 90.4ZM205.89 62.16L202.41 74.41H209.37L205.89 62.16Z" fill="white"/>
<path d="M265.79 87.31C265.98 87.76 265.73 88.21 265.21 88.47C261.47 90.79 256.44 92.21 251.67 92.21C238.39 92.21 229.49 82.93 229.49 69C229.49 55.07 238.39 45.79 251.67 45.79C256.44 45.79 261.47 47.21 265.21 49.53C265.73 49.79 265.98 50.24 265.79 50.69L261.54 59.65C261.28 60.23 260.83 60.42 260.31 60.17C257.92 58.82 255.6 58.36 252.83 58.36C247.03 58.36 243.16 62.61 243.16 69C243.16 75.38 247.03 79.64 252.83 79.64C255.6 79.64 257.92 79.19 260.31 77.84C260.83 77.58 261.28 77.78 261.54 78.35L265.79 87.31Z" fill="white"/>
<path d="M285 46.75C285.58 46.75 285.97 47.2 285.97 47.72V90.34C285.97 90.79 285.58 91.24 285 91.24H273.59C273.14 91.24 272.69 90.79 272.69 90.34V47.72C272.69 47.2 273.14 46.75 273.59 46.75H285Z" fill="white"/>
<path d="M319.17 79.63C319.62 79.63 320.01 80.02 320.01 80.53L319.11 90.33C319.05 90.78 318.59 91.23 318.08 91.23H294.8C294.28 91.23 293.83 90.78 293.83 90.33V47.72C293.83 47.2 294.28 46.75 294.8 46.75H306.21C306.73 46.75 307.18 47.2 307.18 47.72V79.63H319.17Z" fill="white"/>
<path d="M338.25 46.75C338.83 46.75 339.22 47.2 339.22 47.72V90.34C339.22 90.79 338.83 91.24 338.25 91.24H326.84C326.39 91.24 325.94 90.79 325.94 90.34V47.72C325.94 47.2 326.39 46.75 326.84 46.75H338.25Z" fill="white"/>
<path d="M380.35 46.75C380.93 46.75 381.32 47.2 381.25 47.65L380.28 57.45C380.22 57.97 379.7 58.35 379.25 58.35H369.64V90.33C369.64 90.78 369.25 91.23 368.74 91.23H357.33C356.81 91.23 356.36 90.78 356.36 90.33V58.36H345.66C345.21 58.36 344.76 57.97 344.76 57.46V47.72C344.76 47.2 345.21 46.75 345.66 46.75H380.35Z" fill="white"/>
<path d="M425.03 46.75C425.61 46.75 426.06 47.2 425.74 47.78L411.49 73.44V90.33C411.49 90.78 411.04 91.23 410.52 91.23H399.17C398.65 91.23 398.2 90.78 398.2 90.33V73.45L383.95 47.79C383.63 47.21 384.08 46.76 384.66 46.76H398.07C398.71 46.76 399.29 47.21 399.55 47.79L404.84 59.4L410.13 47.79C410.39 47.21 410.97 46.76 411.61 46.76H425.03V46.75Z" fill="white"/>
<path d="M205.18 103.96C205.7 103.96 206.08 104.41 206.08 104.93V147.55C206.08 148 205.69 148.45 205.18 148.45H193.25C192.73 148.45 192.28 148 192.28 147.55V128.59L185.77 147.48C185.58 148 184.74 148.45 184.16 148.45H177.07C176.49 148.45 175.65 148 175.46 147.48L168.95 128.59V147.55C168.95 148 168.5 148.45 167.98 148.45H156.05C155.53 148.45 155.15 148 155.15 147.55V104.93C155.15 104.41 155.54 103.96 156.05 103.96H169.53C170.37 103.96 171.34 104.54 171.72 105.25L180.62 129.88L189.52 105.25C189.91 104.54 190.87 103.96 191.71 103.96H205.18Z" fill="white"/>
<path d="M236.19 149.35C222.46 149.35 213.3 140.07 213.3 126.2C213.3 112.21 222.46 102.93 236.19 102.93C249.92 102.93 259.08 112.21 259.08 126.2C259.08 140.06 249.92 149.35 236.19 149.35ZM236.19 115.95C230.9 115.95 227.36 120.08 227.36 126.2C227.36 132.33 230.91 136.45 236.19 136.45C241.48 136.45 245.02 132.32 245.02 126.2C245.03 120.08 241.48 115.95 236.19 115.95Z" fill="white"/>
<path d="M303.37 103.96C303.95 103.96 304.34 104.41 304.34 104.93V147.55C304.34 148 303.95 148.45 303.37 148.45H292.22C291.77 148.45 291.19 148.13 290.87 147.61L279.65 127.56V147.55C279.65 148 279.26 148.45 278.68 148.45H267.27C266.75 148.45 266.37 148 266.37 147.55V104.93C266.37 104.41 266.76 103.96 267.27 103.96H278.42C279 103.96 279.64 104.28 279.9 104.8L291.05 124.85V104.93C291.05 104.41 291.5 103.96 291.95 103.96H303.37Z" fill="white"/>
<path d="M315.75 134.91C315.94 134.27 316.39 134.07 316.91 134.4C319.88 136.08 323.42 137.3 325.87 137.49C327.93 137.49 329.29 136.52 329.29 135.04C329.29 131.24 311.17 131.43 311.17 117.38C311.17 108.74 317.68 103 327.48 103C332.06 103 337.86 104.87 341.92 107.64C342.44 107.96 342.63 108.48 342.44 108.8L338.38 117.89C338.19 118.53 337.74 118.73 337.22 118.4C334.06 116.6 330.39 115.24 328.13 115.05C326.13 115.05 324.84 115.95 324.84 117.37C324.84 121.17 343.09 120.92 343.09 135.1C343.09 143.67 336.45 149.41 326.52 149.41C321.1 149.41 315.43 147.73 312.21 145.16C311.69 144.77 311.5 144.32 311.69 144L315.75 134.91Z" fill="white"/>
<path d="M383.19 103.96C383.77 103.96 384.16 104.41 384.09 104.86L383.12 114.66C383.06 115.18 382.54 115.56 382.09 115.56H372.48V147.54C372.48 147.99 372.09 148.44 371.58 148.44H360.17C359.65 148.44 359.2 147.99 359.2 147.54V115.56H348.5C348.05 115.56 347.6 115.17 347.6 114.66V104.92C347.6 104.4 348.05 103.95 348.5 103.95H383.19V103.96Z" fill="white"/>
<path d="M420.52 136.84C421.04 136.84 421.49 137.23 421.49 137.68V147.54C421.49 147.99 421.04 148.44 420.52 148.44H390.54C390.09 148.44 389.64 147.92 389.51 147.47V104.85C389.51 104.27 389.83 103.95 390.41 103.95H419.74C420.32 103.95 420.77 104.4 420.77 104.85V114.58C420.77 115.16 420.32 115.55 419.74 115.55H402.91V120.64H416.58C417.16 120.64 417.48 121.09 417.42 121.48L416.52 130.51C416.46 130.9 416 131.35 415.42 131.35H402.91V136.83H420.52V136.84Z" fill="white"/>
<path d="M465.13 147.41C465.45 147.99 465 148.44 464.42 148.44H450.62C449.98 148.44 449.39 147.99 449.14 147.41L442.44 133.36H441.67V147.54C441.67 147.99 441.22 148.44 440.64 148.44H429.29C428.77 148.44 428.32 147.99 428.32 147.54V104.92C428.32 104.4 428.77 103.95 429.29 103.95H446.31C456.24 103.95 462.81 109.75 462.81 118.52C462.81 123.61 459.72 128.77 454.88 130.83L465.13 147.41ZM445.47 122.4C447.66 122.4 449.14 121.05 449.14 118.98C449.14 116.92 447.66 115.56 445.47 115.56H441.67V122.39H445.47V122.4Z" fill="white"/>
<path d="M70.48 105.64C85.574 105.64 97.81 93.4039 97.81 78.31C97.81 63.216 85.574 50.98 70.48 50.98C55.3861 50.98 43.15 63.216 43.15 78.31C43.15 93.4039 55.3861 105.64 70.48 105.64Z" fill="white"/>
<path d="M85.37 78.3099C85.37 86.5299 78.7 93.1899 70.48 93.1899C62.26 93.1899 55.6 86.5299 55.6 78.3099C55.6 70.0899 62.26 63.4199 70.48 63.4199C71.56 63.4199 72.62 63.5399 73.63 63.7499C72.57 65.1299 71.94 66.8499 71.94 68.7199C71.94 73.2099 75.58 76.8499 80.08 76.8499C81.95 76.8499 83.67 76.2199 85.04 75.1699C85.26 76.1799 85.37 77.2299 85.37 78.3099Z" fill="black"/>
<path d="M88.07 124.35L99.43 134.51C100 135.02 99.81 135.96 99.08 136.21L76.43 143.66C75.7 143.9 74.98 143.26 75.14 142.51L78.25 127.59C79.19 123.08 84.64 121.29 88.07 124.35Z" fill="white"/>
<path d="M70.49 144.22C58.65 144.22 47.22 141.69 36.53 136.7C35.01 135.99 34.35 134.18 35.06 132.65C35.77 131.12 37.58 130.46 39.11 131.18C48.99 135.79 59.55 138.13 70.5 138.13C81.45 138.13 92.01 135.79 101.89 131.18C103.42 130.47 105.23 131.13 105.94 132.65C106.65 134.17 105.99 135.99 104.47 136.7C93.75 141.69 82.33 144.22 70.49 144.22Z" fill="black"/>
<path d="M104.362 160.588H36.3561C23.5526 160.588 13.1822 150.217 13.1822 137.414V65.5288C13.1822 58.6185 16.2634 52.0672 21.5882 47.6697L55.5913 19.5599C64.1569 12.48 76.5516 12.48 85.1172 19.5599L119.12 47.6697C124.445 52.0672 127.526 58.6185 127.526 65.5288V137.414C127.536 150.207 117.166 160.588 104.362 160.588Z" fill="#764AF1"/>
<path d="M70.3593 105.694C85.4103 105.694 97.6116 93.4931 97.6116 78.442C97.6116 63.391 85.4103 51.1897 70.3593 51.1897C55.3082 51.1897 43.1069 63.391 43.1069 78.442C43.1069 93.4931 55.3082 105.694 70.3593 105.694Z" fill="white"/>
<path d="M85.2069 78.4419C85.2069 86.6386 78.5558 93.2796 70.3592 93.2796C62.1626 93.2796 55.5215 86.6386 55.5215 78.4419C55.5215 70.2453 62.1626 63.5942 70.3592 63.5942C71.4361 63.5942 72.4931 63.7139 73.5003 63.9233C72.4433 65.2994 71.8151 67.0145 71.8151 68.8792C71.8151 73.3564 75.4447 76.9861 79.9319 76.9861C81.7966 76.9861 83.5117 76.3579 84.8778 75.3108C85.0972 76.318 85.2069 77.365 85.2069 78.4419Z" fill="black"/>
<path d="M87.8992 124.341L99.2269 134.472C99.7953 134.981 99.6059 135.918 98.8779 136.167L76.2923 143.596C75.5644 143.836 74.8464 143.197 75.006 142.45L78.1071 127.572C79.0445 123.085 84.479 121.29 87.8992 124.341Z" fill="white"/>
<path d="M70.3592 144.165C58.5529 144.165 47.1554 141.642 36.4957 136.666C34.9801 135.958 34.3219 134.153 35.0299 132.628C35.7379 131.102 37.5428 130.444 39.0684 131.162C48.9203 135.759 59.4503 138.092 70.3692 138.092C81.2881 138.092 91.818 135.759 101.67 131.162C103.196 130.454 105 131.112 105.708 132.628C106.416 134.143 105.758 135.958 104.243 136.666C93.5631 141.642 82.1755 144.165 70.3592 144.165Z" fill="black"/>
</svg>
