<svg width="58" height="61" viewBox="0 0 58 61" fill="none" xmlns="http://www.w3.org/2000/svg">
<path fill-rule="evenodd" clip-rule="evenodd" d="M35.5397 10.9473C34.8572 7.82593 34.4658 3.75399 35.7747 0.594437C33.0417 0.881315 28.3523 8.61024 28.2221 11.7156C30.0655 10.937 32.8303 10.307 35.5397 10.9473ZM56.0808 19.3271C55.4131 16.2736 54.7717 14.4422 52.4664 11.5437C52.5281 14.6574 52.3269 16.0464 51.5717 18.1877C52.9353 18.1466 54.573 18.383 56.0808 19.3271ZM12.3733 17.3047L12.3985 17.4139C12.8601 19.4189 13.3461 21.5293 14.4865 22.8315C12.828 23.475 12.164 24.0116 10.7832 25.3437C10.3062 20.8003 11.4356 18.8906 12.278 17.4662C12.3102 17.4117 12.342 17.3579 12.3733 17.3047ZM1.7344 32.2363C1.72366 32.1181 1.71303 32.0012 1.70087 31.8854C0.847558 32.8698 0.310052 34.392 0.122559 37.0668C0.176483 37.0235 0.23013 36.9801 0.283723 36.9367L0.285147 36.9356C1.00225 36.3553 1.71012 35.7825 2.94482 35.4616C1.91905 34.2686 1.82294 33.2108 1.7344 32.2363ZM32.2979 60.2032C41.7587 59.21 47.0822 57.0157 50.6822 48.9858C53.1467 43.4887 53.9945 38.8639 54.5644 35.7552C54.827 34.3228 55.0306 33.2122 55.3061 32.4866C55.3726 32.3116 55.4372 32.1416 55.5 31.9763C56.8772 28.3539 57.3924 26.9988 57.2974 25.0099C57.2253 23.5012 56.0762 21.2645 53.5796 20.5529C49.32 19.3387 45.2305 23.1853 44.8044 29.1059C44.4967 33.3825 39.8388 33.3543 39.4876 30.0094C39.3313 28.5203 39.4726 26.649 39.6208 24.6873C39.784 22.5264 39.9555 20.2557 39.7465 18.2652C39.4264 15.2154 36.6863 12.2277 31.945 12.8988C23.3452 14.1161 25.0512 21.539 27.2262 27.8554C29.2637 33.7722 22.9151 34.7744 21.3291 30.424C19.1531 24.4552 17.0087 23.2823 13.5314 25.7739C10.5551 27.9064 9.70012 32.1324 10.8424 34.3062C11.0542 34.7092 11.3653 35.188 11.7065 35.713C12.4203 36.8112 13.2654 38.1115 13.6063 39.3426C14.1933 41.462 12.3965 45.5076 8.73052 42.0356C8.39809 41.7208 7.99073 41.1481 7.53629 40.5094C6.4429 38.9724 5.07701 37.0525 3.82687 37.4186C-1.00783 38.8344 0.964586 42.9025 1.63844 44.1378C2.7847 46.239 4.92342 48.4044 9.00737 51.1396C11.2469 52.6395 12.5608 54.0907 13.7858 55.4438C14.7948 56.5581 15.7433 57.6058 17.099 58.5592C21.121 61.3878 28.6867 60.5859 32.0046 60.2342C32.1065 60.2234 32.2043 60.2131 32.2979 60.2032Z" fill="#1A2D4C"/>
</svg>
