<svg width="286" height="71" viewBox="0 0 286 71" fill="none" xmlns="http://www.w3.org/2000/svg">
<path d="M22.5723 32.8545C22.5723 33.709 23.793 34.5635 26.2344 35.3691C28.6758 36.1748 30.9463 37.3467 33.0459 38.8848C35.1699 40.4229 36.7324 43.2305 36.7324 46.6729C36.7324 52.459 32.8018 56.6338 26.625 57.5859V59.4658C26.625 59.9297 26.3809 60.1738 25.8682 60.1738H22.7676C22.3037 60.1738 22.0596 59.9297 22.084 59.4658V57.6836C18.1777 57.3662 15.0771 56.292 12.7822 54.4854C12.3428 54.168 12.1963 53.8506 12.3672 53.582L15.5166 46.502C15.6875 45.9648 15.9805 45.8428 16.4199 46.1113C18.959 47.5518 21.2783 48.3574 23.3779 48.5039C24.9648 48.5039 26.0146 47.6738 26.0146 46.6973C25.9902 45.8428 24.7695 44.9883 22.3281 44.1338C19.8867 43.3037 17.6406 42.1318 15.6143 40.667C13.5635 39.1045 11.9766 36.2969 11.9766 32.9033C11.9766 27.0439 15.9072 22.8203 22.084 21.9414V19.8418C22.084 19.3291 22.3037 19.085 22.7676 19.1094H25.8682C26.3809 19.1094 26.625 19.3535 26.625 19.8418V21.8926C29.9697 22.332 33.0215 23.4795 35.8291 25.3594C36.293 25.6523 36.415 25.9453 36.2197 26.2383L33.0703 33.2939C32.8994 33.8311 32.6064 33.9775 32.167 33.709C29.457 32.1465 27.0889 31.2676 25.1357 31.0967C23.5977 31.1211 22.5723 31.8535 22.5723 32.8301V32.8545ZM42.1523 31.6338H38.71C38.1729 31.6338 37.9775 31.4385 38.0264 31.0234V24.8711C38.0264 24.4316 38.3193 24.1875 38.8564 24.1143L51.7471 22.1123C52.2109 22.0391 52.4551 22.21 52.4551 22.625V56.2676C52.4551 56.7803 52.2109 57.0244 51.7471 57.0244H42.9092C42.3965 57.0244 42.1523 56.7803 42.1523 56.2676V31.6338Z" fill="#764AF1"/>
<path d="M67.7729 42.458L70.4349 42.018V45.494H74.5269V47.716H70.4349V52.402C70.4349 53.326 70.5816 53.986 70.8749 54.382C71.1683 54.778 71.6669 54.976 72.3709 54.976C72.8549 54.976 73.2803 54.9247 73.6469 54.822C74.0283 54.7193 74.3289 54.624 74.5489 54.536L74.9889 56.648C74.6809 56.78 74.2776 56.912 73.7789 57.044C73.2803 57.1907 72.6936 57.264 72.0189 57.264C71.1976 57.264 70.5083 57.154 69.9509 56.934C69.4083 56.714 68.9756 56.3987 68.6529 55.988C68.3303 55.5627 68.1029 55.0567 67.9709 54.47C67.8389 53.8687 67.7729 53.1867 67.7729 52.424V42.458ZM76.2689 51.302C76.2689 50.29 76.4156 49.4027 76.7089 48.64C77.0169 47.8773 77.4202 47.2467 77.9189 46.748C78.4176 46.2347 78.9896 45.8533 79.6349 45.604C80.2802 45.34 80.9402 45.208 81.6149 45.208C83.1989 45.208 84.4309 45.6993 85.3109 46.682C86.2056 47.6647 86.6529 49.1313 86.6529 51.082C86.6529 51.2287 86.6456 51.3973 86.6309 51.588C86.6309 51.764 86.6236 51.9253 86.6089 52.072H79.0189C79.0922 52.996 79.4149 53.7147 79.9869 54.228C80.5736 54.7267 81.4169 54.976 82.5169 54.976C83.1622 54.976 83.7489 54.9173 84.2769 54.8C84.8196 54.6827 85.2449 54.558 85.5529 54.426L85.9049 56.604C85.7582 56.6773 85.5529 56.758 85.2889 56.846C85.0396 56.9193 84.7462 56.9853 84.4089 57.044C84.0862 57.1173 83.7342 57.176 83.3529 57.22C82.9716 57.264 82.5829 57.286 82.1869 57.286C81.1749 57.286 80.2949 57.1393 79.5469 56.846C78.7989 56.538 78.1829 56.12 77.6989 55.592C77.2149 55.0493 76.8556 54.4187 76.6209 53.7C76.3862 52.9667 76.2689 52.1673 76.2689 51.302ZM83.9909 50.114C83.9909 49.7473 83.9396 49.4027 83.8369 49.08C83.7342 48.7427 83.5802 48.4567 83.3749 48.222C83.1842 47.9727 82.9422 47.782 82.6489 47.65C82.3702 47.5033 82.0329 47.43 81.6369 47.43C81.2262 47.43 80.8669 47.5107 80.5589 47.672C80.2509 47.8187 79.9869 48.0167 79.7669 48.266C79.5616 48.5153 79.4002 48.8013 79.2829 49.124C79.1656 49.4467 79.0849 49.7767 79.0409 50.114H83.9909ZM89.4753 45.868C89.9886 45.7213 90.6559 45.582 91.4773 45.45C92.2986 45.318 93.2079 45.252 94.2053 45.252C95.1439 45.252 95.9286 45.384 96.5593 45.648C97.1899 45.8973 97.6886 46.2567 98.0553 46.726C98.4366 47.1807 98.7006 47.738 98.8473 48.398C99.0086 49.0433 99.0892 49.7547 99.0892 50.532V57H96.4273V50.95C96.4273 50.334 96.3833 49.8133 96.2953 49.388C96.2219 48.948 96.0899 48.596 95.8993 48.332C95.7233 48.0533 95.4739 47.8553 95.1513 47.738C94.8433 47.606 94.4619 47.54 94.0073 47.54C93.6699 47.54 93.3179 47.562 92.9513 47.606C92.5846 47.65 92.3133 47.6867 92.1373 47.716V57H89.4753V45.868ZM106.392 55.13C107.214 55.13 107.837 55.086 108.262 54.998V52.05C108.116 52.006 107.903 51.962 107.624 51.918C107.346 51.874 107.038 51.852 106.7 51.852C106.407 51.852 106.106 51.874 105.798 51.918C105.505 51.962 105.234 52.0427 104.984 52.16C104.75 52.2773 104.559 52.446 104.412 52.666C104.266 52.8713 104.192 53.1353 104.192 53.458C104.192 54.0887 104.39 54.5287 104.786 54.778C105.182 55.0127 105.718 55.13 106.392 55.13ZM106.172 45.208C107.052 45.208 107.793 45.318 108.394 45.538C108.996 45.758 109.472 46.066 109.824 46.462C110.191 46.858 110.448 47.342 110.594 47.914C110.756 48.4713 110.836 49.0873 110.836 49.762V56.736C110.426 56.824 109.802 56.9267 108.966 57.044C108.145 57.176 107.214 57.242 106.172 57.242C105.483 57.242 104.852 57.176 104.28 57.044C103.708 56.912 103.217 56.6993 102.806 56.406C102.41 56.1127 102.095 55.7313 101.86 55.262C101.64 54.7927 101.53 54.2133 101.53 53.524C101.53 52.864 101.655 52.3067 101.904 51.852C102.168 51.3973 102.52 51.0307 102.96 50.752C103.4 50.4587 103.906 50.2533 104.478 50.136C105.065 50.004 105.674 49.938 106.304 49.938C106.598 49.938 106.906 49.96 107.228 50.004C107.551 50.0333 107.896 50.092 108.262 50.18V49.74C108.262 49.432 108.226 49.1387 108.152 48.86C108.079 48.5813 107.947 48.3393 107.756 48.134C107.58 47.914 107.338 47.7453 107.03 47.628C106.737 47.5107 106.363 47.452 105.908 47.452C105.292 47.452 104.728 47.496 104.214 47.584C103.701 47.672 103.283 47.7747 102.96 47.892L102.63 45.736C102.968 45.6187 103.459 45.5013 104.104 45.384C104.75 45.2667 105.439 45.208 106.172 45.208ZM114.096 45.868C114.61 45.7213 115.277 45.582 116.098 45.45C116.92 45.318 117.829 45.252 118.826 45.252C119.765 45.252 120.55 45.384 121.18 45.648C121.811 45.8973 122.31 46.2567 122.676 46.726C123.058 47.1807 123.322 47.738 123.468 48.398C123.63 49.0433 123.71 49.7547 123.71 50.532V57H121.048V50.95C121.048 50.334 121.004 49.8133 120.916 49.388C120.843 48.948 120.711 48.596 120.52 48.332C120.344 48.0533 120.095 47.8553 119.772 47.738C119.464 47.606 119.083 47.54 118.628 47.54C118.291 47.54 117.939 47.562 117.572 47.606C117.206 47.65 116.934 47.6867 116.758 47.716V57H114.096V45.868ZM126.833 42.458L129.495 42.018V45.494H133.587V47.716H129.495V52.402C129.495 53.326 129.642 53.986 129.935 54.382C130.229 54.778 130.727 54.976 131.431 54.976C131.915 54.976 132.341 54.9247 132.707 54.822C133.089 54.7193 133.389 54.624 133.609 54.536L134.049 56.648C133.741 56.78 133.338 56.912 132.839 57.044C132.341 57.1907 131.754 57.264 131.079 57.264C130.258 57.264 129.569 57.154 129.011 56.934C128.469 56.714 128.036 56.3987 127.713 55.988C127.391 55.5627 127.163 55.0567 127.031 54.47C126.899 53.8687 126.833 53.1867 126.833 52.424V42.458ZM136.601 61.07H133.873L141.309 39.774H143.993L136.601 61.07ZM151.869 50.95C151.869 49.7473 151.715 48.882 151.407 48.354C151.114 47.8113 150.556 47.54 149.735 47.54C149.442 47.54 149.119 47.562 148.767 47.606C148.415 47.65 148.151 47.6867 147.975 47.716V57H145.313V45.868C145.826 45.7213 146.494 45.582 147.315 45.45C148.151 45.318 149.031 45.252 149.955 45.252C150.747 45.252 151.392 45.3547 151.891 45.56C152.404 45.7653 152.83 46.0367 153.167 46.374C153.328 46.2567 153.534 46.132 153.783 46C154.032 45.868 154.311 45.7507 154.619 45.648C154.927 45.5307 155.25 45.4353 155.587 45.362C155.939 45.2887 156.291 45.252 156.643 45.252C157.538 45.252 158.271 45.384 158.843 45.648C159.43 45.8973 159.884 46.2567 160.207 46.726C160.544 47.1807 160.772 47.738 160.889 48.398C161.021 49.0433 161.087 49.7547 161.087 50.532V57H158.425V50.95C158.425 49.7473 158.278 48.882 157.985 48.354C157.692 47.8113 157.127 47.54 156.291 47.54C155.866 47.54 155.462 47.6133 155.081 47.76C154.7 47.892 154.414 48.024 154.223 48.156C154.34 48.5227 154.421 48.9113 154.465 49.322C154.509 49.7327 154.531 50.1727 154.531 50.642V57H151.869V50.95ZM174.754 51.236C174.754 52.1453 174.622 52.974 174.358 53.722C174.094 54.47 173.72 55.108 173.236 55.636C172.752 56.164 172.166 56.5747 171.476 56.868C170.802 57.1613 170.054 57.308 169.232 57.308C168.411 57.308 167.663 57.1613 166.988 56.868C166.314 56.5747 165.734 56.164 165.25 55.636C164.766 55.108 164.385 54.47 164.106 53.722C163.842 52.974 163.71 52.1453 163.71 51.236C163.71 50.3267 163.842 49.5053 164.106 48.772C164.385 48.024 164.766 47.386 165.25 46.858C165.749 46.33 166.336 45.9267 167.01 45.648C167.685 45.3547 168.426 45.208 169.232 45.208C170.039 45.208 170.78 45.3547 171.454 45.648C172.144 45.9267 172.73 46.33 173.214 46.858C173.698 47.386 174.072 48.024 174.336 48.772C174.615 49.5053 174.754 50.3267 174.754 51.236ZM172.026 51.236C172.026 50.092 171.777 49.19 171.278 48.53C170.794 47.8553 170.112 47.518 169.232 47.518C168.352 47.518 167.663 47.8553 167.164 48.53C166.68 49.19 166.438 50.092 166.438 51.236C166.438 52.3947 166.68 53.3113 167.164 53.986C167.663 54.6607 168.352 54.998 169.232 54.998C170.112 54.998 170.794 54.6607 171.278 53.986C171.777 53.3113 172.026 52.3947 172.026 51.236ZM177.497 45.868C178.01 45.7213 178.677 45.582 179.499 45.45C180.32 45.318 181.229 45.252 182.227 45.252C183.165 45.252 183.95 45.384 184.581 45.648C185.211 45.8973 185.71 46.2567 186.077 46.726C186.458 47.1807 186.722 47.738 186.869 48.398C187.03 49.0433 187.111 49.7547 187.111 50.532V57H184.449V50.95C184.449 50.334 184.405 49.8133 184.317 49.388C184.243 48.948 184.111 48.596 183.921 48.332C183.745 48.0533 183.495 47.8553 183.173 47.738C182.865 47.606 182.483 47.54 182.029 47.54C181.691 47.54 181.339 47.562 180.973 47.606C180.606 47.65 180.335 47.6867 180.159 47.716V57H177.497V45.868ZM190.234 42.458L192.896 42.018V45.494H196.988V47.716H192.896V52.402C192.896 53.326 193.043 53.986 193.336 54.382C193.629 54.778 194.128 54.976 194.832 54.976C195.316 54.976 195.741 54.9247 196.108 54.822C196.489 54.7193 196.79 54.624 197.01 54.536L197.45 56.648C197.142 56.78 196.739 56.912 196.24 57.044C195.741 57.1907 195.155 57.264 194.48 57.264C193.659 57.264 192.969 57.154 192.412 56.934C191.869 56.714 191.437 56.3987 191.114 55.988C190.791 55.5627 190.564 55.0567 190.432 54.47C190.3 53.8687 190.234 53.1867 190.234 52.424V42.458ZM199.561 57V40.368L202.223 39.928V45.626C202.517 45.5233 202.854 45.4353 203.235 45.362C203.631 45.2887 204.02 45.252 204.401 45.252C205.325 45.252 206.088 45.384 206.689 45.648C207.305 45.8973 207.797 46.2567 208.163 46.726C208.53 47.1807 208.787 47.7307 208.933 48.376C209.095 49.0213 209.175 49.74 209.175 50.532V57H206.513V50.95C206.513 50.334 206.469 49.8133 206.381 49.388C206.308 48.948 206.176 48.596 205.985 48.332C205.809 48.0533 205.567 47.8553 205.259 47.738C204.951 47.606 204.57 47.54 204.115 47.54C203.763 47.54 203.404 47.5767 203.037 47.65C202.671 47.7233 202.399 47.7893 202.223 47.848V57H199.561Z" fill="#764AF1" fill-opacity="0.7"/>
<path opacity="0.8" d="M3 44.4023C66.118 32.1529 136.033 57.4172 221 50.9096" stroke="#EF476F" stroke-width="4" stroke-linecap="round"/>
<path d="M85.8792 13.827L96.5797 13.3526C96.8255 13.3417 96.96 13.4648 96.9699 13.6872L97.1302 17.3048C97.1411 17.5506 97.0176 17.6734 96.7717 17.6843L90.6839 17.9542L90.7805 20.1317L95.6039 19.9179C95.8029 19.9091 95.9496 20.0433 95.934 20.22L95.7429 23.5833C95.7171 23.7956 95.593 23.9067 95.3472 23.9176L90.9686 24.1117L91.2224 29.8365C91.2287 29.977 91.0502 30.1844 90.8746 30.1921L86.6248 30.3805C86.4375 30.3888 86.2898 30.2312 86.2809 30.0321L85.5787 14.1922C85.572 14.04 85.7036 13.8348 85.8915 13.8382L85.8792 13.827ZM112.111 29.2389L106.96 29.4673C106.702 29.4787 106.509 29.3582 106.392 29.1054L103.667 23.9945L103.386 24.0069L103.62 29.2752C103.626 29.4157 103.448 29.623 103.249 29.6318L99.0223 29.8192C98.835 29.8275 98.6638 29.6709 98.656 29.4953L97.9538 13.6553C97.9455 13.468 98.1011 13.2734 98.2889 13.2768L104.623 12.9961C108.334 12.8315 110.853 14.8782 110.997 18.1445C111.082 20.0528 109.996 22.013 108.262 22.8524L112.34 28.8417C112.477 29.035 112.322 29.2296 112.099 29.2394L112.111 29.2389ZM103.093 17.3923L103.206 19.9328L104.611 19.8705C105.442 19.8337 105.958 19.2947 105.924 18.5337C105.89 17.7727 105.329 17.2815 104.498 17.33L103.093 17.3923ZM117.941 22.6227L118.031 24.6597L124.576 24.3696C124.821 24.3587 124.943 24.4472 124.94 24.6584L125.103 28.3228C125.109 28.475 124.954 28.6696 124.767 28.6779L113.61 29.1725C113.411 29.1813 113.288 29.0694 113.219 28.8262L112.517 12.9863C112.507 12.7638 112.607 12.6421 112.829 12.6322L123.74 12.1485C123.963 12.1386 124.134 12.2953 124.142 12.4709L124.302 16.0884C124.313 16.3343 124.19 16.4571 123.932 16.4685L117.68 16.7456L117.764 18.6305L122.845 18.4052C123.032 18.3969 123.192 18.5541 123.163 18.7078L122.984 22.0824C122.959 22.2946 122.835 22.4057 122.588 22.4049L117.94 22.611L117.941 22.6227ZM131.123 22.0383L131.214 24.0753L137.758 23.7852C138.004 23.7743 138.125 23.8628 138.123 24.074L138.285 27.7384C138.292 27.8906 138.136 28.0852 137.949 28.0935L126.792 28.5881C126.593 28.5969 126.471 28.485 126.401 28.2418L125.699 12.4019C125.689 12.1794 125.789 12.0577 126.012 12.0478L136.923 11.5641C137.145 11.5542 137.316 11.7109 137.324 11.8865L137.485 15.504C137.496 15.7499 137.372 15.8726 137.114 15.8841L130.863 16.1612L130.946 18.0461L136.027 17.8208C136.215 17.8125 136.374 17.9697 136.346 18.1234L136.167 21.4979C136.141 21.7102 136.017 21.8213 135.771 21.8205L131.123 22.0266L131.123 22.0383ZM142.355 11.3233L147.928 11.0762C153.02 10.8504 156.526 13.9912 156.746 18.9551C156.966 23.919 153.754 27.3928 148.661 27.6186L143.088 27.8656C142.936 27.8724 142.754 27.7279 142.745 27.5289L142.044 11.7124C142.036 11.5251 142.203 11.33 142.355 11.3233ZM147.16 15.4505L147.51 23.3528L148.751 23.2978C150.612 23.2153 151.783 21.5798 151.666 19.2038C151.56 16.8155 150.274 15.3124 148.401 15.3954L147.16 15.4505ZM166.296 10.2619L170.429 10.0787C170.64 10.0693 170.847 10.2478 170.857 10.4702L171.301 20.4799C171.489 24.7297 169.304 27.0436 164.996 27.2346C160.688 27.4256 158.33 25.3131 158.06 21.067L157.616 11.0573C157.607 10.8465 157.785 10.6392 158.008 10.6293L162.14 10.4461C162.363 10.4363 162.546 10.6041 162.556 10.8382L163.019 21.2694C163.067 22.3582 163.728 22.9857 164.782 22.939C165.836 22.8923 166.428 22.2209 166.38 21.1438L165.916 10.6893C165.907 10.4668 166.086 10.2712 166.308 10.2614L166.296 10.2619ZM186.593 25.9369L181.441 26.1653C181.184 26.1767 180.991 26.0562 180.874 25.8034L178.149 20.6925L177.868 20.7049L178.101 25.9732C178.108 26.1137 177.929 26.321 177.73 26.3298L173.504 26.5172C173.317 26.5255 173.145 26.3689 173.138 26.1933L172.435 10.3533C172.427 10.166 172.583 9.97145 172.77 9.97485L179.104 9.69407C182.815 9.52954 185.334 11.5762 185.479 14.8426C185.564 16.7508 184.477 18.711 182.743 19.5504L186.821 25.5397C186.959 25.733 186.803 25.9276 186.581 25.9375L186.593 25.9369ZM177.575 14.0903L177.687 16.6308L179.092 16.5685C179.923 16.5317 180.439 15.9927 180.405 15.2317C180.372 14.4707 179.81 13.9795 178.979 14.0281L177.575 14.0903ZM187.358 9.32816L191.607 9.13975C191.853 9.12885 191.976 9.25244 191.987 9.4983L192.689 25.3382C192.699 25.5606 192.587 25.6712 192.341 25.6821L188.091 25.8705C187.939 25.8773 187.757 25.7328 187.748 25.5455L187.046 9.70561C187.038 9.5183 187.205 9.3349 187.358 9.32816ZM203.221 8.62489L207.459 8.437C207.705 8.4261 207.839 8.54917 207.85 8.79503L208.553 24.6349C208.562 24.8574 208.438 24.9684 208.192 24.9793L204.048 25.1631C203.837 25.1724 203.669 25.086 203.531 24.881L199.033 17.6083L199.362 25.0424C199.372 25.2648 199.271 25.3748 199.026 25.3857L194.776 25.5741C194.589 25.5824 194.441 25.4365 194.433 25.2492L193.731 9.40926C193.72 9.17511 193.808 9.04218 194.043 9.0318L198.199 8.84755C198.468 8.83561 198.66 8.93267 198.763 9.13925L203.237 16.4013L202.909 9.00235C202.901 8.81503 203.081 8.63112 203.233 8.62437L203.221 8.62489ZM217.46 14.4101L223.969 14.1215C224.145 14.1137 224.329 14.2933 224.335 14.4455L224.674 22.0786C224.684 22.301 224.611 22.5037 224.407 22.6652C222.931 24.0327 220.945 24.7542 218.428 24.8658C213.405 25.0884 209.763 21.7777 209.534 16.6031C209.304 11.4285 212.593 7.8223 217.779 7.59237C219.653 7.50933 221.347 7.9034 222.876 8.77406C223.09 8.84667 223.167 8.98405 223.117 9.18566L222.067 12.763C221.994 12.954 221.845 13.0309 221.62 12.9823C220.553 12.4782 219.44 12.246 218.258 12.2985C215.905 12.4028 214.523 14.0476 214.628 16.4242C214.734 18.8008 216.348 20.2893 218.35 20.2006C219.346 20.1682 219.971 19.9879 220.227 19.6716L220.166 18.2901L217.965 18.3877C217.742 18.3976 217.598 18.3102 217.566 18.1356L217.104 14.8482C217.057 14.5804 217.18 14.4342 217.472 14.4213L217.46 14.4101ZM229.059 7.47942L236.282 7.15918C239.42 7.02008 241.575 8.78967 241.711 11.5989C241.788 13.3316 241.025 14.6557 239.73 15.0767C241.257 15.3961 242.305 16.8042 242.393 18.7828C242.517 21.5808 240.528 23.5458 237.402 23.6844L229.804 24.0212C229.617 24.0295 229.469 23.8719 229.461 23.6963L228.759 7.85635C228.751 7.66904 228.883 7.47549 229.071 7.4789L229.059 7.47942ZM233.862 11.5598L233.96 13.7724L235.47 13.7055C236.207 13.6728 236.656 13.2072 236.627 12.5516C236.598 11.8959 236.098 11.4606 235.383 11.4923L233.873 11.5593L233.862 11.5598ZM234.124 17.2256L234.226 19.5202L236.17 19.434C236.86 19.3917 237.321 18.9373 237.289 18.2348C237.258 17.5324 236.758 17.0971 236.068 17.1394L234.124 17.2256ZM248.641 16.8284L248.731 18.8654L255.275 18.5753C255.521 18.5644 255.642 18.6529 255.64 18.8641L255.802 22.5285C255.809 22.6807 255.654 22.8753 255.466 22.8836L244.309 23.3782C244.11 23.387 243.988 23.2751 243.919 23.0319L243.216 7.19195C243.206 6.96951 243.307 6.84777 243.529 6.83791L254.44 6.35418C254.663 6.34432 254.834 6.50096 254.842 6.67657L255.002 10.2941C255.013 10.54 254.889 10.6627 254.632 10.6742L248.38 10.9513L248.464 12.8362L253.545 12.6109C253.732 12.6026 253.891 12.7598 253.863 12.9135L253.684 16.288C253.658 16.5003 253.534 16.6114 253.288 16.6106L248.64 16.8166L248.641 16.8284ZM255.915 6.28879L268.793 5.71787C269.016 5.70801 269.176 5.87687 269.148 6.04233L268.959 9.71056C268.933 9.93455 268.821 10.0568 268.599 10.0667L265.028 10.225L265.555 22.0961C265.561 22.2483 265.417 22.4424 265.23 22.4507L260.98 22.6391C260.793 22.6474 260.622 22.4908 260.614 22.3152L260.087 10.4323L256.107 10.6088C255.955 10.6155 255.761 10.4716 255.752 10.2843L255.592 6.66676C255.584 6.47945 255.763 6.29554 255.915 6.28879ZM284.161 21.6114L279.396 21.8227C279.15 21.8336 278.982 21.7472 278.879 21.5406L278.053 19.0552L273.546 19.255L272.932 21.8043C272.847 22.0192 272.699 22.1196 272.442 22.131L267.7 22.3412C267.513 22.3495 267.425 22.2243 267.464 22.0467L272.18 5.89619C272.264 5.68131 272.458 5.56712 272.739 5.55467L277.633 5.33772C277.937 5.32422 278.129 5.42128 278.232 5.62786L284.346 21.2982C284.423 21.4473 284.348 21.6031 284.161 21.6114ZM274.353 15.7705L276.941 15.6558L275.439 11.1593L274.353 15.7705Z" fill="#EF476F"/>
</svg>
