<svg width="36" height="36" viewBox="0 0 36 36" fill="none" xmlns="http://www.w3.org/2000/svg">
<g clip-path="url(#clip0_738_5073)">
<path fill-rule="evenodd" clip-rule="evenodd" d="M18 36C27.9411 36 36 27.9411 36 18C36 8.05887 27.9411 0 18 0C8.05887 0 0 8.05887 0 18C0 27.9411 8.05887 36 18 36ZM25.9904 16.1266C26.6126 15.5796 26.6736 14.6318 26.1266 14.0096C25.5796 13.3875 24.6318 13.3265 24.0096 13.8735L15.9 21.0028L11.9904 17.5658C11.3682 17.0188 10.4204 17.0798 9.87346 17.7019C9.32648 18.3241 9.38745 19.2719 10.0096 19.8189L15.9 24.9972L25.9904 16.1266Z" fill="#764AF1"/>
</g>
<defs>
<clipPath id="clip0_738_5073">
<rect width="36" height="36" fill="white"/>
</clipPath>
</defs>
</svg>
