<svg width="34" height="34" viewBox="0 0 34 34" fill="none" xmlns="http://www.w3.org/2000/svg">
<g clip-path="url(#clip0_747_5083)">
<path fill-rule="evenodd" clip-rule="evenodd" d="M17 34C26.3888 34 34 26.3888 34 17C34 7.61116 26.3888 0 17 0C7.61116 0 0 7.61116 0 17C0 26.3888 7.61116 34 17 34ZM26.0397 14.0812C26.6368 13.5071 26.6554 12.5575 26.0812 11.9603C25.5071 11.3632 24.5575 11.3446 23.9603 11.9188L14.6 20.9191L10.0397 16.5341C9.44251 15.9599 8.49294 15.9786 7.91875 16.5757C7.34456 17.1729 7.36318 18.1224 7.96034 18.6966L13.5603 24.0812L14.6 25.0809L15.6397 24.0812L26.0397 14.0812Z" fill="white"/>
</g>
<defs>
<clipPath id="clip0_747_5083">
<rect width="34" height="34" rx="17" fill="white"/>
</clipPath>
</defs>
</svg>
